DataType=double
version=3
OpenSimVersion=4.5
endheader
time	ground_force_1_vx	ground_force_1_vy	ground_force_1_vz	ground_force_1_px	ground_force_1_py	ground_force_1_pz	ground_moment_1_mx	ground_moment_1_my	ground_moment_1_mz
1.855	-86.48244817879896	766.2123443501262	41.69536721861213	0.9682537701609613	0.006637299061187014	0.4170757641291548	-3.529282751466361	4.653007022812894	-44.64843341898691
1.86	-88.41066256856605	777.5353600018186	44.73484963659109	0.9626584854421419	0.006637299061187014	0.4170447437895055	-3.236551937452251	4.91823791459136	-42.53273408235894
1.865	-89.93726663053295	786.8666933829429	47.48909011407306	0.9570079827824151	0.006637299061187014	0.4169917863639706	-2.918649810493568	5.126049630322285	-40.21989459071003
1.87	-91.05979868937254	794.2391785593936	49.96321574091019	0.9513064807546444	0.006637299061187014	0.416917958855864	-2.57552618045315	5.276165811262361	-37.7408989569461
1.875	-91.77806292673037	799.6991578908644	52.16483578028826	0.945558464182838	0.006637299061187014	0.4168242525354769	-2.208051972126872	5.369365277453813	-35.12619823503788
1.88	-92.09485174500408	803.3051927787453	54.10256323995874	0.9397686496566477	0.006637299061187014	0.4167116111059241	-1.818180423635623	5.4072966822045	-32.40511151445188
1.885	-92.01687153005624	805.1278509232462	55.785048162631	0.9339419358548634	0.006637299061187014	0.4165809594176313	-1.408958212279743	5.392305055549611	-29.6053750302475
1.89	-91.55560898534088	805.2496949840942	57.22055683513874	0.9280833414380489	0.006637299061187014	0.4164332307994661	-0.9844174950331601	5.327273131642477	-26.75288883947563
1.895	-90.72789072358491	803.7649047605919	58.41698552520609	0.9221979337129859	0.006637299061187014	0.4162693912625603	-0.5493996490371302	5.21548506469107	-23.87165132984081
1.9	-89.55600177942077	800.7785349730144	59.3821211305773	0.9162907515642851	0.006637299061187014	0.4160904591122143	-0.1093507417823751	5.060520783652803	-20.9838211065085
1.905	-88.06735757598092	796.4057277843982	60.12397893849271	0.9103667262732107	0.006637299061187014	0.4158975188550711	0.3298874112815788	4.866183368497695	-18.1098265324108
1.91	-86.29379816215166	790.7710644902809	60.65111787398823	0.9044306037927263	0.006637299061187014	0.4156917286889539	0.7622771022259709	4.636453437925869	-15.26846302818397
1.915	-84.27058407196921	784.0078857795273	60.9728934500779	0.8984868718246148	0.006637299061187014	0.415474321284104	1.181768707006101	4.375459463190187	-12.47695649852681
1.92	-82.03516896634311	776.2572407035241	61.09963232975954	0.8925396946637331	0.006637299061187014	0.415246597978963	1.582468817957041	4.08745298863422	-9.750993992460495
1.925	-79.62584186308688	767.666295399417	61.04271563447794	0.8865928582615912	0.006637299061187014	0.415009916894807	1.958799365307246	3.776780876809701	-7.104718850870475
1.93	-77.0803549183285	758.3863307551472	60.81456353116324	0.8806497273504593	0.006637299061187014	0.4147656757992487	2.305656767755516	3.447850338549257	-4.550677563686125
1.935	-74.43464979183186	748.5706018559802	60.42852904745175	0.8747132157987273	0.006637299061187014	0.4145152908022902	2.61857321184823	3.105085437812572	-2.099713591241925
1.94	-71.72176413562984	738.3722578384089	59.89872748727859	0.868785770679799	0.006637299061187014	0.4142601721403937	2.893868332010354	2.75287597363297	0.2391694208101525
1.945	-68.97096486626013	727.9423658690559	59.23983525216026	0.862869369871444	0.006637299061187014	0.4140016983910502	3.128768791674502	2.395521162070036	2.458928684958884
1.95	-66.20713565915622	717.427976478655	58.46687910065188	0.8569655323971535	0.006637299061187014	0.4137411904660065	3.321474342073861	2.037170760444956	4.554543058276256
1.955	-63.4504340857258	706.9701288015792	57.59501251830578	0.8510753402063038	0.006637299061187014	0.4134798866642537	3.471160863048665	1.681765220667315	6.522996118865676
1.96	-60.7162123506949	696.7017140031843	56.63926370999832	0.8451994696885908	0.006637299061187014	0.4132189199384265	3.577924914889695	1.332975786756386	8.363194032718278
1.965	-58.01516982086363	686.7452090109664	55.61425403622468	0.8393382309439431	0.006637299061187014	0.4129592983549154	3.642682970748809	0.9941466770162386	10.0758418293084
1.97	-55.35369404531998	677.2104427876885	54.53391502094676	0.833491612686359	0.006637299061187014	0.4127018895239539	3.667040806439058	0.6682439761699484	11.66329136148675
1.975	-52.734351232538	668.1926746686615	53.41125168768708	0.8276593306443493	0.006637299061187014	0.4124474095558009	3.653147584362759	0.3578173708668126	13.12935768302017
1.98	-50.15649125605697	659.7712484506392	52.25819329651536	0.8218408774196799	0.006637299061187014	0.4121964168758731	3.603547285061228	0.06497947146510052	14.47909608249273
1.985	-47.61692705501439	652.0089281126729	51.08554311894559	0.8160355719613609	0.006637299061187014	0.4119493110159435	3.521037669701313	-0.208596652003515	15.71854500512354
1.99	-45.11064002302833	644.95183682632	49.90300860363458	0.8102426070803702	0.006637299061187014	0.4117063362983694	3.408544064583711	-0.4616652959691692	16.85445821145131
1.995	-42.63146153005719	638.6298483415585	48.71928284021929	0.8044610937470418	0.006637299061187014	0.4114675901511969	3.269012712805956	-0.6933864108932029	17.89405533880631
2	-40.17268754592441	633.057343909495	47.5421576299935	0.7986901012515297	0.006637299061187014	0.4112330356371446	3.105326649646463	-0.9032980991322783	18.84480903368791
2.005	-37.72759208843638	628.2343505747051	46.37866126607447	0.7929286926438774	0.006637299061187014	0.4110025176503065	2.920245441126379	-1.091284906003257	19.7142696258041
2.01	-35.2898124690067	624.1481060542922	45.23521681825845	0.7871759551826126	0.006637299061187014	0.410775782131053	2.716367866855023	-1.257542410436976	20.50991786528597
2.015	-32.85358970507338	620.775024467172	44.11780948030492	0.781431025792432	0.006637299061187014	0.4105524975713192	2.496113861546148	-1.402538963626961	21.23903689747139
2.02	-30.41386422514286	618.0829287297734	43.03214345961256	0.7756931117505159	0.006637299061187014	0.4103322780280901	2.261719920089615	-1.526976253809031	21.9086015808163
2.025	-27.96624394833137	616.0333480523145	41.98376731095077	0.7699615069809642	0.006637299061187014	0.4101147068311918	2.015241712573775	-1.631750653435462	22.52518903885397
2.03	-25.50687200866665	614.5836800387401	40.97815184291348	0.7642356044367804	0.006637299061187014	0.4098993601614295	1.758558715090984	-1.717916795413532	23.09491537449526
2.035	-23.03222547452411	613.6890653812936	40.0207128476749	0.7585149050923903	0.006637299061187014	0.4096858296857982	1.493377382828689	-1.786653999186993	23.62340089216076
2.04	-20.53887794352799	613.3038891525729	39.11677854695709	0.752799024064408	0.006637299061187014	0.4094737434673026	1.221231074302004	-1.839235504240183	24.11576254051113
2.045	-18.02325912475498	613.3828890098325	38.27150755151949	0.7470876943346562	0.006637299061187014	0.4092627844173382	0.9434763373551798	-1.877000119906176	24.57662909230538
2.05	-15.48144333672819	613.8819103248397	37.48976732414106	0.7413807684793067	0.006637299061187014	0.409052705627918	0.6612863053715734	-1.901325822603753	25.01017218278942
2.055	-12.90899620415805	614.7583960616117	36.77598596833082	0.7356782187238156	0.006637299061187014	0.4088433420082603	0.3756428366073394	-1.913604945146331	25.42014482842129
2.06	-10.30090471599391	615.9717267809617	36.13399190582258	0.7299801355568325	0.006637299061187014	0.4086346177539958	0.08732954018494477	-1.915220834530424	25.80991874918316
2.065	-7.651608842787114	617.4835240591609	35.56685659005477	0.7242867250576908	0.006637299061187014	0.408426549295776	-0.2030722218831507	-1.90752613091723	26.18251314573232
2.07	-4.955139698999753	619.2579960816054	35.0767543118455	0.718598305029588	0.006637299061187014	0.4082192435053396	-0.4951829574268354	-1.891823053224834	26.54061055809372
2.075	-2.205349636227486	621.2623476806112	34.66485026939915	0.7129152999900403	0.006637299061187014	0.4080128910788658	-0.7888200170155262	-1.869346169439753	26.88655926184327
